<svg xmlns="http://www.w3.org/2000/svg" viewBox="0 0 1200 180" fill="none" preserveAspectRatio="xMidYMax meet" role="img" aria-label="City skyline"><line x1="0" y1="179" x2="1200" y2="179" stroke="#2E2E32"/><rect x="0" y="131" width="31" height="49" fill="#1A1A1E" stroke="#2E2E32" stroke-width="1"/><rect x="18" y="139" width="4" height="6" fill="#8C8880" fill-opacity="0.25"/><rect x="18" y="171" width="4" height="6" fill="#8C8880" fill-opacity="0.25"/><rect x="43" y="110" width="32" height="70" fill="#1A1A1E" stroke="#2E2E32" stroke-width="1"/><rect x="49" y="118" width="4" height="6" fill="#8C8880" fill-opacity="0.25"/><rect x="87" y="112" width="31" height="68" fill="#1A1A1E" stroke="#2E2E32" stroke-width="1"/><rect x="93" y="120" width="4" height="6" fill="#8C8880" fill-opacity="0.25"/><rect x="93" y="152" width="4" height="6" fill="#8C8880" fill-opacity="0.25"/><rect x="133" y="93" width="40" height="87" fill="#1A1A1E" stroke="#2E2E32" stroke-width="1"/><rect x="139" y="101" width="4" height="6" fill="#8C8880" fill-opacity="0.25"/><rect x="151" y="165" width="4" height="6" fill="#8C8880" fill-opacity="0.25"/><rect x="186" y="47" width="49" height="133" fill="#1A1A1E" stroke="#2E2E32" stroke-width="1"/><rect x="216" y="55" width="4" height="6" fill="#8C8880" fill-opacity="0.25"/><rect x="204" y="87" width="4" height="6" fill="#8C8880" fill-opacity="0.25"/><rect x="204" y="119" width="4" height="6" fill="#8C8880" fill-opacity="0.25"/><rect x="216" y="119" width="4" height="6" fill="#8C8880" fill-opacity="0.25"/><rect x="204" y="135" width="4" height="6" fill="#8C8880" fill-opacity="0.25"/><rect x="250" y="77" width="35" height="103" fill="#1A1A1E" stroke="#2E2E32" stroke-width="1"/><rect x="256" y="85" width="4" height="6" fill="#8C8880" fill-opacity="0.25"/><rect x="256" y="133" width="4" height="6" fill="#8C8880" fill-opacity="0.25"/><rect x="295" y="95" width="54" height="85" fill="#1A1A1E" stroke="#2E2E32" stroke-width="1"/><rect x="337" y="103" width="4" height="6" fill="#8C8880" fill-opacity="0.25"/><rect x="325" y="119" width="4" height="6" fill="#8C8880" fill-opacity="0.25"/><rect x="365" y="90" width="53" height="90" fill="#1A1A1E" stroke="#2E2E32" stroke-width="1"/><rect x="383" y="98" width="4" height="6" fill="#8C8880" fill-opacity="0.25"/><rect x="407" y="98" width="4" height="6" fill="#8C8880" fill-opacity="0.25"/><rect x="371" y="114" width="4" height="6" fill="#8C8880" fill-opacity="0.25"/><rect x="371" y="130" width="4" height="6" fill="#8C8880" fill-opacity="0.25"/><rect x="383" y="130" width="4" height="6" fill="#8C8880" fill-opacity="0.25"/><rect x="407" y="130" width="4" height="6" fill="#8C8880" fill-opacity="0.25"/><rect x="383" y="146" width="4" height="6" fill="#8C8880" fill-opacity="0.25"/><rect x="425" y="32" width="35" height="148" fill="#1A1A1E" stroke="#2E2E32" stroke-width="1"/><rect x="467" y="74" width="44" height="106" fill="#1A1A1E" stroke="#2E2E32" stroke-width="1"/><rect x="485" y="162" width="4" height="6" fill="#B8976A" fill-opacity="0.5"/><rect x="497" y="162" width="4" height="6" fill="#B8976A" fill-opacity="0.5"/><rect x="521" y="107" width="58" height="73" fill="#1A1A1E" stroke="#2E2E32" stroke-width="1"/><rect x="563" y="131" width="4" height="6" fill="#8C8880" fill-opacity="0.25"/><rect x="527" y="147" width="4" height="6" fill="#8C8880" fill-opacity="0.25"/><rect x="551" y="163" width="4" height="6" fill="#8C8880" fill-opacity="0.25"/><rect x="590" y="34" width="33" height="146" fill="#1A1A1E" stroke="#2E2E32" stroke-width="1"/><rect x="639" y="62" width="37" height="118" fill="#1A1A1E" stroke="#2E2E32" stroke-width="1"/><rect x="645" y="102" width="4" height="6" fill="#8C8880" fill-opacity="0.25"/><rect x="684" y="46" width="31" height="134" fill="#1A1A1E" stroke="#2E2E32" stroke-width="1"/><rect x="702" y="118" width="4" height="6" fill="#8C8880" fill-opacity="0.25"/><rect x="690" y="150" width="4" height="6" fill="#8C8880" fill-opacity="0.25"/><rect x="722" y="99" width="31" height="81" fill="#1A1A1E" stroke="#2E2E32" stroke-width="1"/><rect x="740" y="139" width="4" height="6" fill="#8C8880" fill-opacity="0.25"/><rect x="740" y="155" width="4" height="6" fill="#8C8880" fill-opacity="0.25"/><rect x="728" y="171" width="4" height="6" fill="#8C8880" fill-opacity="0.25"/><rect x="759" y="84" width="32" height="96" fill="#1A1A1E" stroke="#2E2E32" stroke-width="1"/><rect x="801" y="33" width="40" height="147" fill="#1A1A1E" stroke="#2E2E32" stroke-width="1"/><rect x="831" y="121" width="4" height="6" fill="#8C8880" fill-opacity="0.25"/><rect x="848" y="138" width="51" height="42" fill="#1A1A1E" stroke="#2E2E32" stroke-width="1"/><rect x="890" y="162" width="4" height="6" fill="#8C8880" fill-opacity="0.25"/><rect x="908" y="130" width="34" height="50" fill="#1A1A1E" stroke="#2E2E32" stroke-width="1"/><rect x="926" y="138" width="4" height="6" fill="#8C8880" fill-opacity="0.25"/><rect x="958" y="89" width="44" height="91" fill="#1A1A1E" stroke="#2E2E32" stroke-width="1"/><rect x="976" y="113" width="4" height="6" fill="#8C8880" fill-opacity="0.25"/><rect x="988" y="113" width="4" height="6" fill="#8C8880" fill-opacity="0.25"/><rect x="988" y="129" width="4" height="6" fill="#8C8880" fill-opacity="0.25"/><rect x="964" y="161" width="4" height="6" fill="#8C8880" fill-opacity="0.25"/><rect x="988" y="161" width="4" height="6" fill="#8C8880" fill-opacity="0.25"/><rect x="1009" y="139" width="57" height="41" fill="#1A1A1E" stroke="#2E2E32" stroke-width="1"/><rect x="1051" y="163" width="4" height="6" fill="#B8976A" fill-opacity="0.5"/><rect x="1074" y="134" width="44" height="46" fill="#1A1A1E" stroke="#2E2E32" stroke-width="1"/><rect x="1134" y="106" width="39" height="74" fill="#1A1A1E" stroke="#2E2E32" stroke-width="1"/><rect x="1152" y="114" width="4" height="6" fill="#8C8880" fill-opacity="0.25"/><rect x="1140" y="130" width="4" height="6" fill="#8C8880" fill-opacity="0.25"/><rect x="1140" y="162" width="4" height="6" fill="#8C8880" fill-opacity="0.25"/><rect x="1186" y="76" width="53" height="104" fill="#1A1A1E" stroke="#2E2E32" stroke-width="1"/><rect x="1216" y="116" width="4" height="6" fill="#8C8880" fill-opacity="0.25"/><rect x="1216" y="132" width="4" height="6" fill="#8C8880" fill-opacity="0.25"/><rect x="1204" y="164" width="4" height="6" fill="#8C8880" fill-opacity="0.25"/></svg>